<svg width="128" height="128" viewBox="0 0 32 32" fill="none" xmlns="http://www.w3.org/2000/svg">
<path d="M25.7678 7.70367L26.5993 7.1481L26.5993 7.1481L25.7678 7.70367ZM25.7678 21.6297L26.5993 22.1853L26.5993 22.1853L25.7678 21.6297ZM24.2964 23.1012L23.7408 22.2697L23.7408 22.2697L24.2964 23.1012ZM18.6667 23.9982L18.6623 22.9982C18.1117 23.0006 17.6667 23.4476 17.6667 23.9982H18.6667ZM18.6667 24L19.5611 24.4473C19.6305 24.3084 19.6667 24.1553 19.6667 24H18.6667ZM16.8944 27.5445L17.7888 27.9917L17.7888 27.9917L16.8944 27.5445ZM13.3333 24H12.3333C12.3333 24.1553 12.3695 24.3084 12.4389 24.4473L13.3333 24ZM13.3333 23.9982H14.3333C14.3333 23.4476 13.8883 23.0006 13.3377 22.9982L13.3333 23.9982ZM7.70362 23.1012L8.25919 22.2697L8.25919 22.2697L7.70362 23.1012ZM6.23216 21.6297L7.06363 21.0742L7.06363 21.0742L6.23216 21.6297ZM6.23216 7.70367L7.06363 8.25924L7.06363 8.25924L6.23216 7.70367ZM7.70362 6.2322L8.25919 7.06367L8.25919 7.06367L7.70362 6.2322ZM24.2964 6.2322L23.7408 7.06367L23.7408 7.06367L24.2964 6.2322ZM27.6667 14.6667C27.6667 12.8149 27.6679 11.3508 27.5492 10.184C27.4288 9.00044 27.1768 8.01239 26.5993 7.1481L24.9364 8.25924C25.2577 8.74014 25.4551 9.36099 25.5594 10.3864C25.6655 11.4285 25.6667 12.7733 25.6667 14.6667H27.6667ZM26.5993 22.1853C27.1768 21.321 27.4288 20.333 27.5492 19.1494C27.6679 17.9826 27.6667 16.5185 27.6667 14.6667H25.6667C25.6667 16.5601 25.6655 17.9049 25.5594 18.947C25.4551 19.9724 25.2577 20.5933 24.9364 21.0742L26.5993 22.1853ZM24.8519 23.9327C25.5435 23.4706 26.1372 22.8769 26.5993 22.1853L24.9364 21.0742C24.6202 21.5473 24.214 21.9536 23.7408 22.2697L24.8519 23.9327ZM18.671 24.9982C20.1047 24.992 21.281 24.9649 22.2566 24.83C23.2483 24.693 24.0971 24.4371 24.8519 23.9327L23.7408 22.2697C23.3205 22.5505 22.7929 22.7369 21.9828 22.8489C21.1565 22.9631 20.1055 22.9919 18.6623 22.9982L18.671 24.9982ZM19.6667 24V23.9982H17.6667V24H19.6667ZM17.7888 27.9917L19.5611 24.4473L17.7722 23.5528L16 27.0973L17.7888 27.9917ZM14.2111 27.9917C14.9482 29.4658 17.0518 29.4658 17.7888 27.9917L16 27.0973L16 27.0973L14.2111 27.9917ZM12.4389 24.4473L14.2111 27.9917L16 27.0973L14.2278 23.5528L12.4389 24.4473ZM12.3333 23.9982V24H14.3333V23.9982H12.3333ZM7.14805 23.9327C7.90293 24.4371 8.75169 24.693 9.74337 24.83C10.719 24.9649 11.8953 24.992 13.329 24.9982L13.3377 22.9982C11.8945 22.9919 10.8435 22.9631 10.0172 22.8489C9.20707 22.7369 8.67944 22.5505 8.25919 22.2697L7.14805 23.9327ZM5.40069 22.1853C5.86276 22.8769 6.45651 23.4706 7.14805 23.9327L8.25919 22.2697C7.78603 21.9536 7.37978 21.5473 7.06363 21.0742L5.40069 22.1853ZM4.33333 14.6667C4.33333 16.5185 4.33212 17.9826 4.45082 19.1494C4.57121 20.333 4.82319 21.321 5.40069 22.1853L7.06363 21.0742C6.7423 20.5933 6.54486 19.9724 6.44055 18.947C6.33454 17.9049 6.33333 16.5601 6.33333 14.6667H4.33333ZM5.40069 7.1481C4.82319 8.01239 4.57121 9.00044 4.45082 10.184C4.33212 11.3508 4.33333 12.8149 4.33333 14.6667H6.33333C6.33333 12.7733 6.33454 11.4285 6.44055 10.3864C6.54486 9.36099 6.7423 8.74014 7.06363 8.25924L5.40069 7.1481ZM7.14805 5.40073C6.45651 5.8628 5.86276 6.45656 5.40069 7.1481L7.06363 8.25924C7.37978 7.78608 7.78603 7.37983 8.25919 7.06367L7.14805 5.40073ZM14.6667 4.33337C12.8149 4.33337 11.3507 4.33217 10.1839 4.45086C9.00039 4.57126 8.01234 4.82323 7.14805 5.40073L8.25919 7.06367C8.74009 6.74235 9.36094 6.5449 10.3863 6.44059C11.4284 6.33458 12.7732 6.33337 14.6667 6.33337V4.33337ZM17.3333 4.33337H14.6667V6.33337H17.3333V4.33337ZM24.8519 5.40073C23.9876 4.82323 22.9996 4.57126 21.8161 4.45086C20.6493 4.33217 19.1851 4.33337 17.3333 4.33337V6.33337C19.2268 6.33337 20.5716 6.33458 21.6137 6.44059C22.639 6.5449 23.2599 6.74235 23.7408 7.06367L24.8519 5.40073ZM26.5993 7.1481C26.1372 6.45656 25.5435 5.8628 24.8519 5.40073L23.7408 7.06367C24.214 7.37983 24.6202 7.78608 24.9364 8.25924L26.5993 7.1481Z" fill="black"/>
<circle cx="21.3333" cy="14.6667" r="1.33333" fill="black" stroke="black" stroke-linecap="round"/>
<circle cx="16" cy="14.6667" r="1.33333" fill="black" stroke="black" stroke-linecap="round"/>
<circle cx="10.6667" cy="14.6667" r="1.33333" fill="black" stroke="black" stroke-linecap="round"/>
</svg>
