<svg width="128" height="128" viewBox="0 0 30 30" fill="none" xmlns="http://www.w3.org/2000/svg">
<path fill-rule="evenodd" clip-rule="evenodd" d="M17.9533 4.40423C17.0535 3.98369 16.0516 3.75 15 3.75C11.4418 3.75 8.4527 6.4254 8.05977 9.96177L7.74502 12.7945C7.69305 13.2623 7.66706 13.4962 7.62791 13.7258C7.48719 14.5511 7.21778 15.3493 6.82951 16.0911C6.7215 16.2975 6.60043 16.4992 6.35829 16.9028L5.56737 18.221C4.76161 19.5639 4.35873 20.2354 4.64596 20.7427C4.93319 21.25 5.71624 21.25 7.28235 21.25H22.7176C24.2837 21.25 25.0668 21.25 25.354 20.7427C25.6412 20.2354 25.2383 19.5639 24.4326 18.221L23.6417 16.9028C23.3995 16.4992 23.2784 16.2975 23.1704 16.0911C22.7822 15.3493 22.5127 14.5511 22.372 13.7258C22.3389 13.5317 22.3152 13.3345 22.2773 12.9956C19.343 12.8787 17 10.463 17 7.5C17 6.35196 17.3517 5.28607 17.9533 4.40423ZM20.3426 6.23604C20.1248 6.60689 20 7.03887 20 7.5C20 8.68724 20.8276 9.68118 21.9373 9.93643C21.7755 8.52668 21.201 7.25477 20.3426 6.23604Z" fill="white"/>
<path d="M11.25 21.25C11.25 21.7425 11.347 22.2301 11.5355 22.6851C11.7239 23.14 12.0001 23.5534 12.3483 23.9017C12.6966 24.2499 13.11 24.5261 13.5649 24.7145C14.0199 24.903 14.5075 25 15 25C15.4925 25 15.9801 24.903 16.4351 24.7145C16.89 24.5261 17.3034 24.2499 17.6517 23.9017C17.9999 23.5534 18.2761 23.14 18.4645 22.6851C18.653 22.2301 18.75 21.7425 18.75 21.25L15 21.25H11.25Z" fill="white"/>
<circle cx="22.5" cy="7.5" r="3" fill="white" stroke="white"/>
</svg>
