<svg width="128" height="128" viewBox="0 0 30 30" fill="none" xmlns="http://www.w3.org/2000/svg">
<path fill-rule="evenodd" clip-rule="evenodd" d="M21.2376 13.8277C21.2376 10.6089 21.2376 8.99957 20.4651 7.84348C20.1307 7.343 19.701 6.91328 19.2005 6.57887C18.0444 5.8064 16.435 5.8064 13.2163 5.8064H10.9245C7.70577 5.8064 6.0964 5.8064 4.94031 6.57887C4.43983 6.91328 4.01011 7.343 3.6757 7.84348C2.90323 8.99957 2.90323 10.6089 2.90323 13.8277C2.90323 17.0464 2.90323 18.6558 3.6757 19.8119C4.01011 20.3124 4.43983 20.7421 4.94031 21.0765C5.95025 21.7513 7.30611 21.8366 9.77861 21.8474V21.849L11.176 24.6437C11.5445 25.3807 12.5963 25.3807 12.9648 24.6437L14.3622 21.849V21.8474C16.8347 21.8366 18.1906 21.7513 19.2005 21.0765C19.701 20.7421 20.1307 20.3124 20.4651 19.8119C21.2376 18.6558 21.2376 17.0464 21.2376 13.8277ZM7.48682 14.9736C8.11968 14.9736 8.63271 14.4605 8.63271 13.8277C8.63271 13.1948 8.11968 12.6818 7.48682 12.6818C6.85396 12.6818 6.34092 13.1948 6.34092 13.8277C6.34092 14.4605 6.85396 14.9736 7.48682 14.9736ZM13.2163 13.8277C13.2163 14.4605 12.7033 14.9736 12.0704 14.9736C11.4375 14.9736 10.9245 14.4605 10.9245 13.8277C10.9245 13.1948 11.4375 12.6818 12.0704 12.6818C12.7033 12.6818 13.2163 13.1948 13.2163 13.8277ZM17.7999 13.8277C17.7999 14.4605 17.2869 14.9736 16.654 14.9736C16.0211 14.9736 15.5081 14.4605 15.5081 13.8277C15.5081 13.1948 16.0211 12.6818 16.654 12.6818C17.2869 12.6818 17.7999 13.1948 17.7999 13.8277Z" fill="white"/>
</svg>
