<svg width="128" height="128" viewBox="0 0 32 32" fill="none" xmlns="http://www.w3.org/2000/svg">
<circle cx="16" cy="16" r="1.66667" stroke="white" stroke-width="2"/>
<path d="M24.4022 15.3774C24.5283 15.6414 24.5914 15.7734 24.5914 16C24.5914 16.2266 24.5283 16.3586 24.4022 16.6226C23.6688 18.1577 21.3035 22 16 22C10.6965 22 8.33114 18.1577 7.59777 16.6226C7.47164 16.3586 7.40858 16.2266 7.40858 16C7.40858 15.7734 7.47164 15.6414 7.59777 15.3774C8.33114 13.8423 10.6965 10 16 10C21.3035 10 23.6689 13.8423 24.4022 15.3774Z" stroke="white" stroke-width="2"/>
<path d="M22.6667 5.33337H24.2C25.9913 5.33337 26.887 5.33337 27.4435 5.88987C28 6.44637 28 7.34204 28 9.13337V10.6667M22.6667 26.6667H24.2C25.9913 26.6667 26.887 26.6667 27.4435 26.1102C28 25.5537 28 24.658 28 22.8667V21.3334M9.33333 5.33337H7.8C6.00866 5.33337 5.11299 5.33337 4.5565 5.88987C4 6.44637 4 7.34204 4 9.13337V10.6667M9.33333 26.6667H7.8C6.00866 26.6667 5.11299 26.6667 4.5565 26.1102C4 25.5537 4 24.658 4 22.8667V21.3334" stroke="white" stroke-width="2" stroke-linecap="round"/>
</svg>
